{"title":"Tumbledown.2015.BRRip.480p.x264.AAC-VYTO [P2PDL]","uid":13871796,"size":404390220,"categoryP":"video","categoryS":"movies","magnet":"?xt=urn:btih:f789a5fcc158469176f8f9f464c18e44ffbdf66a&amp;dn=Tumbledown.2015.BRRip.480p.x264.AAC-VYTO+%5BP2PDL%5D&amp;tr=udp%3A%2F%2Ftracker.leechers-paradise.org%3A6969&amp;tr=udp%3A%2F%2Fzer0day.ch%3A1337&amp;tr=udp%3A%2F%2Fopen.demonii.com%3A1337&amp;tr=udp%3A%2F%2Ftracker.coppersurfer.tk%3A6969&amp;tr=udp%3A%2F%2Fexodus.desync.com%3A6969","seeders":1,"leechers":0,"uploader":"VYTOP2PDL","files":7,"time":1458106047,"description":"____    ____ ____    ____ .___________.  ______   \r\n     /   /      /   / |           | /  __    \r\n    /   /      /   /  `---|  |----`|  |  |  | \r\n        /     _    _/       |  |     |  |  |  | \r\n       /        |  |         |  |     |  `--'  | \r\n    __/         |__|         |__|      ______/  \r\n                                                  \r\nPresenting Small Encodes with quality for years!\r\n                                                                                                   \r\n                                                                                                   \r\n\r\n\r\nTumbledown.2015.BRRip.480p.x264.AAC-VYTO\r\n\r\n\r\nGenre: Comedy, Music, Romance  \nhttp://www.imdb.com/title/tt2338424/\r\n\r\n\r\nFormat                                   : MPEG-4\r\nFile size                                : 377 MiB\r\nDuration                                 : 1h 43mn\r\nOverall bit rate                         : 510 Kbps\r\n\r\nVideo\r\nFormat                                   : AVC\r\nBit rate                                 : 475 Kbps\r\nWidth                                    : 720 pixels\r\nHeight                                   : 304 pixels\r\nDisplay aspect ratio                     : 2.35:1\r\nFrame rate mode                          : Constant\r\nFrame rate                               : 23.976 fps\r\nBit depth                                : 8 bits\r\nStream size                              : 351 MiB (93%)\r\nWriting library                          : x264 \r\n\r\nAudio\r\nFormat                                   : AAC\r\nBit rate mode                            : Variable\r\nBit rate                                 : 32.0 Kbps\r\nChannel(s)                               : 2 channels \r\nChannel positions                        : Front: L R\r\nSampling rate                            : 48.0 KHz\r\nStream size                              : 23.6 MiB (6%)\r\nLanguage                                 : English\r\n\r\nSubtitle                                 : Yes (English)\r\n\r\nScreen Shots: (Click to view)\r\n \nhttp://ititli.com/Xec \nhttp://ititli.com/Xei \nhttp://ititli.com/Xep \nhttp://ititli.com/XeD \nhttp://ititli.com/Xea \nhttp://ititli.com/Xeb \nhttp://ititli.com/Xez \nhttp://ititli.com/XeI\r\n\r\n----------------------------------------------------------------------------------------------------\r\n\r\n\r\nEncoder Notes: Looking For Early Access To Anything You Can Provide WEBDL, DVDScr, DVDR, BluRay,\r\nDirect Audio, Music Releases and Seedboxes. If You Got anything to offer please contact us.\r\n\r\nSupport us by donating BC - 1FgwdzPsd1y25Gea8wP1qni35uGCtmkRCD\r\n\r\nFind us and join us!","torrent":{"xt":"urn:btih:f789a5fcc158469176f8f9f464c18e44ffbdf66a","amp;dn":"Tumbledown.2015.BRRip.480p.x264.AAC-VYTO+%5BP2PDL%5D","amp;tr":["udp%3A%2F%2Ftracker.leechers-paradise.org%3A6969","udp%3A%2F%2Fzer0day.ch%3A1337","udp%3A%2F%2Fopen.demonii.com%3A1337","udp%3A%2F%2Ftracker.coppersurfer.tk%3A6969","udp%3A%2F%2Fexodus.desync.com%3A6969"],"infoHash":"f789a5fcc158469176f8f9f464c18e44ffbdf66a","infoHashBuffer":{"type":"Buffer","data":[247,137,165,252,193,88,70,145,118,248,249,244,100,193,142,68,255,189,246,106]},"announce":[],"urlList":[]}}